<mxfile host="app.diagrams.net" modified="2023-10-17T06:31:46.433Z" agent="Mozilla/5.0 (Windows NT 10.0; Win64; x64) AppleWebKit/537.36 (KHTML, like Gecko) Chrome/118.0.0.0 Safari/537.36" etag="8aApMNYyA1RNCCPH-DzE" version="22.0.4" type="github">
  <diagram name="Сторінка-1" id="5K5pkbAbFF0xNDqIXmTl">
    <mxGraphModel dx="1434" dy="790" grid="1" gridSize="10" guides="1" tooltips="1" connect="1" arrows="1" fold="1" page="1" pageScale="1" pageWidth="827" pageHeight="1169" math="0" shadow="0">
      <root>
        <mxCell id="0" />
        <mxCell id="1" parent="0" />
        <mxCell id="dJfr71_uDZgafGz-rYJZ-3" value="" style="shape=image;verticalLabelPosition=bottom;labelBackgroundColor=default;verticalAlign=top;aspect=fixed;imageAspect=0;image=data:image/png,iVBORw0KGgoAAAANSUhEUgAAAH8AAACiCAYAAABoHRLiAAAAAXNSR0IArs4c6QAAAARnQU1BAACxjwv8YQUAAAAJcEhZcwAADsMAAA7DAcdvqGQAACdvSURBVHhe7X0HfFRV2v6TSe+FNNIIEDoESAiuWCgrfYHFsi6fbVEXRVe/XWT9u36Lrh1clqYIAooiKCKiEGHpSA2QAgRSSEhCSO+9Tcr5n/fMvWEy3HTCJMw8+b2Ze897bjvPKe8p770mjAMS6uvrQbtmZmZSSFO0pifk5OTAw8ND2muK1o5vaGgQ0lE9obi4GPb29jA1NZVCboKuTfdAuqoGYEOSGk/5W6BUzfDZNTU+HmnZqDcxMZGOugnt45X0hKqqKvFrbW0tfnVRV1cHlUolRAmd1VP6lJaWwsnJSQppCjqe7l08Q21tbRPyCUoJR2iNPEJeXh7c3NykvaZoibyamhpcu3YNly9fRlxcHAoLC8VDkJSUlAihbTlxmwOdv7mE0YaphRUG/20lLL36ocLWDZYnv0X018slbedAxFPiOzg4CHF0dBS/lC5DhgzB8OHD0b9/f5ibm0tH3ERnySd+KJ3omkpoQj7faSSfFITmyO0s+URweXm5IDAtLQ3Hjx9HdHS0IDs5ORk8I8LKygqWlpbiGvSAdJPav809dLvBE8BucAhs5r0JVWkeCta/htryUknZOciZnNJL+5fSt7q6WqSDhYUFAgICMHjwYIwaNQoTJkxA7969Rcaxs7MTeiVok6cEuk5ZWVnbyOdk3vZq38rFHTEl9QhyNkVpLXAmqxw2iWGIjY1FVFQULly4gJSUFNE8kLi6ugrx8fGBr68v/Pz8RMmhhLCxsWkU2qdEaa7KbQ+q6xnej62Bl7UJblQwuFia4PXBlpK246D0UavVqKysbBTK7PRbVFSEGzduCMnIyEB+fj4KCgqQlZUlCs3AgQMxevRoBAUFiUxBtcRllQfGuZqC3y5O5NVhpodJi4WAyG9ztd8V5Js4umNlQg08UYH4GitEh27Djc3viRw5YMAAhISEiAekh3V3d4eLi4u42eZye1eglrf5YQV1COYZtIZvn86vwyyvW6vhrgKVfrJPiHxKs6tXr4qCER4eLmpBSo9BgwbB7pl3MTZoFKp4i2zJC/vrAzQ1YrclP5mX6i1nYnDJbwIsc5NQvf1DzJkxDdOnTxdVm62trSjFt60KvwtAaUs1REVFhWgS9+7di40bN8LKZwC8/rISbk72WNynFiFDArof+dRep6enY8mSJdhz6FcEvf0lfLx9kGbjhSWBdnjIo/kMY0Tz+L9jiYjgNVQ1U8Ei5jiGFF7BokWLRBOpxEN7yCcyG8EVjKz/5tCcPjU1lX3yySeMV+PMy8uLzZ2/kH0WV8ryK2pYQmk9WxpbLcU0or34iKddQm4xOxQZwxb+msE8PT1ZYGAg27RpE8vMzJRi3QQvoIzbFtLerSD+iEdCp8k/c+YMmzJlCuNtN5s2bRrbvXs3422ZpDXidoJ3f9n333/PJk6cyLihzGbOnMm4jSBpNWgX+bQhC++GCNEO0xZupDTR79+/n3HLnPGunSj5lBN5tSNObETXgMjlNgFbunQp47YTGzp0KONd5kZOeE+DcSOycV9XiD/ikbaprRa5gUQmXztMW0jHjRJxMDdIWJ8+fRjvgrHt27dLt2bEncQXX3zBuOHMhg0bJjIAEU/c8C6kIn8kxJ/McYeq/aNHjzLeD2W828ZCQ0MlrRH6wHfffcf8/f3ZqFGjWERERNe2+Xl5eezBBx9kvA/K9uzZY6zm9Qwq7du2bRO1MNleZG+1lfx2d7Sp70kjda+++iqmTp16W0bbjOg4aH5g7ty5WLBgAc6ePYstW7ZImjZAZAEJrZX8jIwMGhNgISEhYtvQUJB0gH320d9YfIEU0I1w/fp11q9fP+bs7MySkpKk0FvR4ZJ/8OBBUdIff/xx8P68FKovMFTkJ+P8ycM4fPgwMsoBdWk6kjIyUNvAUK8uQUZyLMrVPGpZuohDcikxHep6oK7oOs7HJeJiBIXHo7gqCxFcH3b5GirUDUDJdYTFJuNyFOljUESD69qoyUWUOGc4krPLwY/QK3i1jyeeeEIMG4eFhUmhLcP0XxzSNtUC4ldp6DAsvx4/HzmJxPBTePT196G2c4O3jf6GZ9Wc0B92/gdHIjKQG7EL2y+4YtSgGpz+5QDqfUfCNvMgdoXnIMDPEceXfoavEzNRlnAGuy9mY3hwECwvfYZHPgqFrVkBDq3biqPxtShNO4cf98XDedgoDMjYjPv+/j0sTYtx8eed2OsajCnORYiJuYa+wcFI/Pg1fBtVjusxJ3AwqQTBY4bDwVx5pu1O4Ui1CzISYmBvbYW6oQ/A2ULFn69ps0wjgFSAxRAxDdm2RUxYPXKD5iLw+f/DMbN+MNUf7wLFKWeQdB546tX38PbyjxGQ9CHSzMdi7sSB2Lnx31j3ejaCZz0MD0cHDJjzFNZ88DbeeeMVONtZIreyGqg3gY06GI+9+C5e/UMOUhzvw8tLFmOaUy8U5fFqhMO2bDge5fplH85C2isHkCxCOdIj8Mpaazz88dt4/71n4RWdjcRifk49Y9igAbB7YQVie4/Fqbw6cNNfkUtZVFTa2yLBzioMqEhByZSXMNPLXMyG6RP1NRWI+OIzjPGxhrlLMNacyUNyTgUch87AY46bkPnnxxDiYAaYOaDywlx42ZrD0jsYG/Zc0JzA3AyO40fA3cIUltYmcB3SG7YmprAxM4M8t+cwZQz87XiYix9cb5RAkyU4KsuRyr7FJGdz2HqNwwc//IyYjBpJqT/Mcm+AY9ENmI6ahEd9zOBioanNmxMVTQ60RaJLTZDiPAjORzdgV2oVLhRrVv3oC6YWHpjw8grE5FehtiIb53/ejsdGWKPw6E783WEdZlxYgcOJvC1O+gWPffQUztaqUZ5yCn+aOlQ6A6HlnkrFkYvI4pxWpV7Gbi872ErhsLKB9wOvI7akFjVl+YiL3oH/GeksKfWHXem1KHHrD/OEc9iVWY+SBlNFLmVpc+VdyQ2e4LxIXFz/DvolHUPVzQVAeoFT3+FwHZGIL1e9j2Xv/C8+/jwU8THHEXq4CuvnTsYD82fh8pE9uKh2waSB0fh62X+w4dujqEnIh7qmbRm33PI0fly7DEu+j8T8tdPRXwqHXwg+GRyL9W8uw4dvvYf3V/8XaRWaVVD6xMGTYVBv+jsmNVzHWBdT1LdihbZrSpeWWw0dOlTMy3/zzTfo1auXpNEHGMpzEnHhcgJKeHPbd+xk+JukIbfGBr68J2LaUIPrmakwc/KGBTfkwlNq4OzmBxczW7gM9IKL+gaiil0wpr8LKtNOIdE0BEGeQGZcFkw8PdA7cSVG7fDBqt+7oNwsAJN+Mwjm1fnIzMxDrz5DYVefhXOHI5EHG/gPH4UhfVxgqschj9zcXMyePRvx8fFiedzIkSMlTVPwbp4w+No9pUu6F154QUwr/vjjj1LoXYqwD9jYJQdZqbTb3UHj/I6Ojmzx4sVi9q85aPfz20U+6dPT08VY8rhx41hUVJSkMUJf4LU1O3nyJOMlnQUEBDBeA3Td2D6NJW/dulWUfhpLvnjxoqTtWaAZiep6nhg9fGri9OnT7IEHHmC+vr5iroUyQ5cu5igrKxPz97SgICgoiJ04cUKK0XNQw4lP51ZsYU0Dq++hGeDgwYNsxIgRYlJn8+bNYrq2PeSb5OTkNBp8NPpDkEf4yDDgcRq3SU/7pOcnwc6dO/Haa68JB4TVq1eD1wTNLizsTqAnyqpuEMO8ZKO5Wqp4/761jl/3ARnmP/30E/7617+KFdHLly/HjBkzxCQP8UNDvOT/oAR5hI+kQyVfGzwDiCbAycmJLVy4UKzno6ahu4IXeFbAS3tKeX2jpFbUi5qgu4MWanBrnj399NPCuKP1kr/88ouk1aBdJZ/+SZmi1a5ec3paa05Tvbt37xZOGPPnz8e0adNEjXAn1+K3BnrQijqGQjVDQ+NTa2CuMoGbpQksumHFVV1dLVzZaDk3TdmS65o8jcurfSmWBlSy7/jSbfKtO3bsGD799FNEXEvD7P9bgdH1mQh84CHEWPrib4M67w3TWdBkXX4N4786zEuw5h11FwsTnhGkgG6A96KKYHLqe1yJu4qz1gEIvHYAzz//vHDvIv8/XeiFfAJdmDxPLiakYJfaC3k5Waj1HwW/mH2Y29de2ATN3VRXg/imEl/ewsgktfl25iZw4qLPARty49q/f7+oTc2mv4Aqt76oU5ljXqA3nvA1FR5OLXGgF/IJ5LHjzqv+8II6fBhXAyRfRNTbTyM3K0MYIffffz9mzpyJiRMngtsKwkghoXN2lbFIDyhX9wSlgs9r/UZQ6bfTmQq93SCSiAgynLmNhMzMTLHegKr2c+fOiTDyT/ztY0+BPfI6ers6493hVrAzqddMxzaTVnonX+XkjhVXa9DXVoWIwnr0Lk+DzfmfEBkZKRw0ybOH3JLIVZkcEv39/cViBPLbc3Z2FkIZhewFOXPI2y1duznQA1bV826tZhdltRA1wJWSegy2NwXvwyC1ogEPumvOTclqxYt+R+in9KF0IvJkYumXhJw1yT+PG2QinbhxLNKDhs1paRx51pInDtlKwcHBmDx5MkLNBorzkq+eA6+RFgW07K3cLvL5jTaSTwpCZ8inMWZzJzdEF9djbC9TlPDSFs4zwCxvc3FT169fF0LNA7ln0zZ5rNJxRDi5d5NQridXbRIiXt6ma9PNdxTCALW2R0GDOTKHz8BIXzfOtB0SI8Pgy5unzoLSh9KRuluyUAagX3JPJ29cqtYpjIxjIpsyf2BgoHDMlAsCuWkT9mTUYjzPlDRJcyS3DnN7a7ppRJ4S2kU+mf5S+G0p+S3552sfTzdBN0mlgaxZ2k5KShITE2TZkgFJiUX9WG2hRKRzdBTkJGrj6oGyBjP0GTcZ9rNfhkt9GTJXv4IrkeelWB0HJSxlYno7iCxkmBGZVKORZzK5Xvft21eEkcMq3ZP8NhFKl5ZKdmt6Ip/SSW/++ZSjldDa8XTjJB3VE9ryWpZKpkIuN0e2Xlfj8MWrsHB2x1tj3TCe/OC5XiSMQu0iH9+cnkCetgQiVQmdJbct5Le15CufwQBQx62+KnUtBqcexwLXYhzI0v98/J2GwZJPBt1T3gzW9TXoY6PCR4HKw6F3MwyWfIJchZqa6Xc9or5g8OQTlOwDQ4Cx5JPxZKjkyxb07RKyiJXC75TQ9Vu7B8aNPYpDfW2RCNz6VYrXEdH387dH7krylcJl0dbTqBvBxETVJE5Pl7ZyYJD9/DoTzetXryUm4sCBA3hq3h/Rx9OtUd/d+/lyP10JlD7Gfn4LsORP7WxuAivezbOorbrFn627o7mM114YtMFHw8pU9TdXyu52GDT5RDyVopaakbsZBk8+lfrm2s+7HcaS34LxdLfjlq4eWbS6Ye0RglI4SWfP3Raha7R2HVnf2M/npV83jpK05f5vV5zOSFvP36n5/KVLl+LKlStiWwbNt9OiCyXQsYTmrNXW9ASK05KeSjPdX0vXkHX0qnNaCUuLKOSw1s7fmp7SiNBcbdLZ85OeIMchZ1nymZBBpHZoPp8UhObI19XTMqMNGzaI5VVG6Af33XefWA4mg8inDE0LR5TQLPntLflEPi047E5r8w0NtORLl3zjII8RrcJIvgHDSL4Bw0i+AcNIvgHDhHcLGq19shQJ8kQHWYVyZ4C25T4s6WmfXgBEU6JGa19/oE/RxcTESHuacQDyhSBfACVoc6yieWdZyNmARDtMV2Q9/RrqsGh3AhVCXY6oMOqGyaLNr0r2hZOF+vDNbcsih9GFjdAviAOZD5knKpTaYdqizaGxzTdgGMk3YBjJN2AYyTdgtPmV682JEfqHEi9tkTZ/bEFJjNA/iERdXqgvrxumJCrqFnRUjNA/qKuny4u8LrE1UdHBnREj9A8lXtoiRoPPgNGzyFcX4NwPUcio04xP1xYm4+zVVNTqfvaMozIvHpGXstAV79soSghFRIbGLUsbaZFfIrlY2ukB6FnkV2fhwKe/IpnIrytDRFgErmdV8npP0mujoRZxl/bjSo5mhe7tQxEi1l5CulonWyXvxV9PqWHdg5YzqkpqGWQpJeHPpB3Wxs/RtBuFcT/imSma164NXCt98SrtOCaPC4SXtzfefW8r1q88j7KrO+D23J8we3AQZs54E9+FvYVZPisQnp+ItIJIjBo+CFc+G4h/Hi7kJ6jC+c+fxprjWbBxD8CwBjukHEqA0nevwlYPwJ5r0k4j1Ij9eQk+Cz0j3tmXcW4PvvjHj8jRPkFFLqKd+2JoL+2ZzFLs+yQUj/x+PmovbcKGb7aiqJrXTJV5+O+W53AxV4rWiHRsn74JEdJeV4DKR1ndTR5lKa3ld8uFtlVFagZZ6A2V2vskVZIvu5J0GOoy7D+XjmF/P4OsvASsyNiBiII8/PTvzXjolS1IT70Gz6y1iK2sBaurRsHmOiw6E4W9+z7EvHvfRWj6InjdyEbV1WnwdFVh9F/OYszxZdh/9AzCPF/C0/d48NrAGr7BNci3jkJFlXyv9ajITkdiXBySUnORnBiHuJRMlNO71wUsMPT3L8Nn2yVsT0tHUvIVDHv1EXg0rkTnCZgcj9oh7vCy0irieZewrXYSpvWxhIfvEIQXVCO3vArVPHNePfEwfNylePz48sJMxMVdRUr2dVzj95GYnIrSGk0z1lEocaPmUqzAZ6G6QQht39LPp9Wd2vsNdU312kIX6RBU5ujr5Yqii/uw8fMdsPvzWxhjUoiTDcPhP9yL9z/NETLuefSVoqPfPejjIm1LKC7PQNogR2gcoXth3BP3Yt/G7fB18IadlaY1s7X14gngALVkI1DNcP3YXmxYvRo/nK7B3q9XY/XW/UilLzQ1whOzVw7Fl4vn4Ix6Lkb1loIF1Ei9XIX+Nq6w0Ho7szo7FSd8e4Fu0dIjAFO4KqukCplntyHniTFw1UTjTVE9UiIPYPXqL3Ew61d8z+/j860/ILFA856AjoA40OWF+vkt8SYL7xJqfMFlEf0/7TDTm31GWS9Lh2FmhbH3TcasoD6wt2UI3/QSzmfzcM6RYoYK7gVdFwR6oYK2wVJZUYGK/i4wNS/nDy8F3gI7DJv3Av69fj0Wz7XBgnfWY/2SZzHMrenCh/LCDIwI/g2cLxegQgoTqClDNK8lzN090MSrm3ebGmHhit8MrMKx+DCc/swKc8dovatAZYYRk+dj/foP8Uy/P+L/8ftY/tZiBHt1/I3k1GXT5oRE5q0Jj5I06kkceQ4WYqGCExf61RZLfpLGfiE/QN6WpSNoqCrCd3u2IMX9fjz55KPwzqhEpYsLJphH48jhWF5AanH25Lqbny9VgKOdF7zjinlZJlzCgb+VYeGL83D97GXcKNWU5ApeOzhblPBSemtGHbvwEmb2k3a0URaPdTtr8dxLyzAgJBobzmRKCp7BitNhqopG/36eTTKehacfJt7IB1kdgCm8g0ahgJO6dPyfMNpeBOrAG4/uegajpb3OQpcTEnPOlYMCn8S1k4Wp2Fa5WJpAiIUJTyguvCmjbVmsu2AgT2XtiAkBntj38hj4+49B5B/XYoKnG2a/9zr6HXwLAwaPQDgeheDGwg59XG01ie3gipF+xzF/8KfI8fOE9ZDDyMwtxL6/Pwn7z1/EGJ9RmD+xFPO2hfMqpBKpUZZwVYfAVuEVe5aOvrC5xTIvxbkNJ9AnZByG2tlh7AMhcE/ciJhcTY9BXWMCG/Bq3F6beg7XkXjS5jj2JEm+f65DMD7YEn975L7GT7M2hRnsPO3RlV8goFaJXh2vzSWJM7dTSWibqtlG8Pa+XZ9Zeeihh8SnP247GmpZ1Deb2Ir3T7ESKegW1Jaxc/u+Z9uOXGFqhS8klWdeYFu++opF53TB/Skh5QCbt2olS8srYmG/fMJeefhbliypuhJ+fn7Slga8LW/zZ1Z0snA3gYkpfO+5Dw/N6C8ZdAows0PQvfdgkJ+yQ6IJrzECQ6ZjiPsdWlzqPwXLJ3hwQ6oBNWZemPfvGTcN1m4Ko69eD8dt89XTygdGGABUlBNkoZKtvd+a9KzM0oCy9FSkXM1BLXUFWQOKctKRll1GPUwdqJEefl68lp2XFeRfjUN6BcXi58hOR3pOoeKnWvQB4kCXl7byyHtvN/uAJE36ga1Iz0Id0k4dxYGdF1BRz5swdT7Cdu9GcpHSAEsDKhL3Y8deGhpmqMoMx/qvIkSfv7Y4GaG7w5BX0xVTRu0HVeFK3LRRmga052QUV1+IDV2KkJAQLm/hbBkV0WrE7VyNeRS2egf2fjAXJ69lYMc/VuL1/30Q4+9fhc+/exdL132KXVHZKL+yGz9YBuMeh2t4dnkoCuik6gIc+Hk/LqZUYtCjf4F76j9xKcccvg/MxT2583HgmgouA8YiyPon7LlShpriFPy4/V+4kKU0e3DnoMSLbpiiSMf3MJzDviVF+PxwOA6tcsTG/2aiMjcRm2NOYu7X+xE+Pg/PbbiMkqoa5CXvgfWDm3H81F/xwry38MbCv+DhIA9cOvAmZt77G1h5e2Lirv/iUDpQU8CbgapsWND3bSxc4D1kPPbE3OA9C3vM+t2fsPTYJcDUCvf8ZjqWHIqGhVNfPPLHf2F0767ssXcdeij5jnAfYIorRw7gnPnvsOaRPqjIjUWv2ACM7N0LGPUHLJsqRcU49PfTHWbLROLJ6XDnUQE/PLgoF0cuFyEnMxtWdR7wdNL0XlxsneGXU6SZFfTqg/uSslAmFO6YnpChqS16MHoo+YMx66MZqI4Nx8n/bsM/j9JAsClMVTa8OtPEuAkPuNGwZROoodZadNF3/AKk/2cvIjPioPILhKPysNxdh55Jfv5RfL28FLP/+U+8NtEGV9NrYeXsiwKnCEQm56Ah4QjWnpXiKsIHAyaHoahE2nW7Dwt938a6b4sRMNSTZyMNSqvLkO1irxmizc9GtLcrbISiCGF+brdMNvU09EzyXSdhsM9yePFi3uvNPKx4rD/svYMx//fjsOb3vWG2+ALm3CPFbYQZbH3V2PXVP/D58SwET34emyOuSjpbTHnuOdQMfxBD3W5OZhTFb8UDQ/uJRDq//038z4QxImNcjfgaz/52NOryY7F+zTM4eV17SrgHgcbmZamsrBQi76vV6sZtEvo4v7Z+0qRJ4rf7IZd99ef+LPSatKsAdWU627ViBTufVsoKrl9g694cwTZElkraWpZ7Yg374LPzrILVseLLP7GX39zPilkDq0yPYKtW/MhulKtZQ3URizx7hMWmV0vH3Xn4+vo28kFSXV3N8vLymoRpC/FHPNK2iv8TL04koTdSkmiHaet09/m1pSzU3WCDEdNfRIDyq+gEzK08ETJzEszLSpAbfxIZgVvxZJBsGKqRme6CPzwdws9Uj4J8W/z5td/yar4B5WVmmDAjBL1tzPnzm8PDzRue7vqz9okDbV5IaABHN0xJjGP7PRzG9/AZ0SEYyTdgGMk3YBjJN2AYyTdgdOp9+9OmTcOqVavEm52M0A+ox5WcfHOdM1n7bX7fPie0kXxSEJojX1e/cuVKxMfHi20Z9F05esebEijjkNB0ohI6qydQ/5W6nkrTzfLxpCO5ceOG+A7fiBEjxL6uXhet6QmtpSGR09Lx7dW7uLjgo48+EtuE9nT1DPKjiuLBeQLs27dPvL1y0aJFIkxXr4vW9IQ78VHFlvTtIb/5ImQAkAmnBDNEGMk3km+YkMmnqtwQYdDkk2FI9gNlAEOEQZJPS7fpxQV15laot7RBFd82RHSqn6+EvLw88bYNJbR2fGvWfGt6Alm6dnZ2itYwXZuOr2xQobAWiI6OxpkzZ/DC00/A39VB6Fuy5lvTE+jjzBRPn9Z+W/v5t7yKjU6qG3a7pCvPLQtBKbyJqDS/lInol8hqojcQueUljESQblh7hE6qFE7S2XO3RegaLV1H1pM01iA8zyjF7Yi0dO07JW29B4Ns82VQAshNgSHCoMmnEmIk30BhLPkGDEE+/2vgGcAQYfDkc+7BDLTk39F+PlWvJM0d31k9oW39fFPez2fIzs7Gjh078PRjD2Nkf1+hN+h+flcKQSn8dkpz16jn/bmbookjqn1OVF0DJ5WHN5CYqMSv7vHdSZp7xvZKpz62oCR0UqXwOyVyqWgSxqWaqVBcp5GKBk0cWoFE91tZz0R4kaSnuHSM9jnaKrrX7gqhmk8pXJa23oNBtPlUVqxVJqKEV3GiZQOPEkBuCiicpJ7vW9IIoIhxd8MgyCdYcNvOwbwppUQ+WXyMaQw+zjnszUxgeesioLsSBkM+wZoTa8OJ5TW9AFWPmpKvqQlsud62eVvyroNBkW9KJZuXflOJfU21r7GQqbQ7cl3TuuHuhkGRT8Ra8ie2l0q33Oab8mq/l4Wq6Zu0DQDdZvUuLblOTEzE5cuXERcXh8LCQtFnLykpafwlkVfHNgcqxVSdtwTP3r1RZmIlDDx6VbuPgxUqigtQVVkpxegcbGxsRD/bwcFBCG2TuLq6YsiQIQgMDET//v0V/R1uRz+/rat3TXJzcxvJpwMJ8okpkpw3aJv0tE962ifIehnl5eVikEUJtbW1qOCJTQRmZGTg9OnTYul0QkICrl+/Lm7M0tJSCN0cXUf+1ZbOgr4h7+LmIV6yaMPzoZm6AoX5+ZK286B0koUyvLxNzyf7xtMSsr59+2LQoEEYPnw47r//fri7u4uMY2tr21hAdDmg89GvLLrpT/t0fnpGJdB9NB7PIzce3VUln5wjiGAq0ZGRkYiKihJeJvSwFJccD6hU+Pj4CH9zPz8/kXMpIWikjH5lac4ho72gh67mJd+Mm/g6nYBOgdKHXlxRyWsRXSkqKhK+9JQe6enpKCgoEEIjjfk88w0cOBDBwcEICgrC4MGDhXh5eUln1uC2lvyuIp9ugko1vbzh8OHDuHr1qhh2HDBgQOMD0sNS3F69eombNaSXPFDppMxA5FOakecTFQoqHFQwnJ2dRa0wdepUzJw5U6QbEd7tyaebX79+PY4dOyZyNOXeZ599Vvj20TY1C1Si6QaM0IDSlmoHajbT0tKEN9GmTZtEBqG5EsoECxcuFE3E7SKfyGwEV7TrYwva4FUd4+02e/LJJxm/McYNHTZ+/Hi2bds2KYYRHQHPAOzee+9l9vb2jJPGXn31VcabjmZ54JmozR9buC3k8zaMrV27lvFqivXu3Zs9/vjjbP/+/YznYimGEZ0B7+WwPXv2sNmzZzNPT082cuRI9uWXX7LMzEwpxk3cUfLDwsIYr84Zb7sZr5rYTz/91OLFjeg4uH3AvvvuO1GjUiaYNWsWi4iIkLQatIt82pCF3uFGoh2mLdxIaaI/cOAA8/f3Z9xSZ2vWrGG8+8Z4myNObETXgNKdatoPP/yQ8S4h4zYAO3HiRCMn1PxSJpH3dYX4Ix5pm/reIjeQyORrh2kL6eQX+HGDRBDPDTeRG4248/jiiy8Y78+zYcOGiQxAxBM33MhW5I+E+JM57lC1z614NmTIEBYQECDaIiP0h2+//Zb16dOHjR49mvFuYte2+fRqT2pzeB+d7d6921jN6xlU2rdu3So+sUY2V3FxcZvJb/dYKfU9r1y5At7lEH3P2zHaZkTHQfMDDz/8MBYsWABufGPLli2Spg0QWUBCayWfuhZ0yJgxY4Rx1xNwbfd85uNqyszMzBpl6r+PSdqWcXL9++zpN4+xntB3oTGWfv36MWdnZ5aUlCSF3ooOl3xu3YuSzvvxt4w5d2u8+p2YVJJl/+IJaKivRFb8eTGkSiORx1NLNXHrypESeV6EZYvPavQM0JzIE088IYaNqQZoC9pFPp2UyJ8wYYIU0nNRV52Grz/4M1Z9fwhHf1iFqS9sRkplNVIPf4tVK7bg119/xeWrUVLsngFqhmlSiVzP24Jbvp/fktBsFJHPrXzp8B6CXe+J99Vp5EV8H5UrghtsXTHl8efx7sev48lfw5BSXIrIQwUY9OiL+Nc772Da2KHwFzF7BmitAPGUlZV1C3dKouJVP7X7bRLKVYQe99LFOW/gl19+kWQNHh2lcSpxc7ZDgGcvmNg5aL7YXVWBS8UNMHFxEKt+nFz7oumX9bs3ZF54m67In66oaIaureLt7S0OornoHgVT88ZFIpaWFjClZbocYsWedmfF2h5Bva1hXlkh5vvLijOk7/P3DNBaAZrto3USSvzpSrvafJqDJ/JPnjwphfQQRIZi+fLlN+VIrKTQgYUTxs52REzoJvyHx/slOhY9yYuP1k1Q6adFIG1Bu+bzY2NjMWzYMMyYMQPffPONWIHT3VGRfQGnL9xAlabF0qBvMGYNc0La1Vg49BsLZ6tSJIQmwGXqGLiqShEfFoGEwjL4DB4N9wYbeAxx1XxhqxsjNzcXc+bMEauljh8/jpEjR0qapqAmgey2ds/nk27BggViRmnXrl1SqBHdATTF6+joyBYvXswKCwul0FtBHMr9/HaRT/q0tDQxlDhu3Dh24cIFSWOEvsBra3bq1Ckxx0+DPDk5OV03tk9jybzKF6WfxpIvXbokaY3QB86cOcMefPBB5uPjI+ZaKDN0aD6fpgPluV4lIR1NB9LkwapVqxi3KllwcLCYTjTizuPQoUMsMDBQ1MS03KuiokKQ2+H5fJrv1Q7TFm09LdHauHEj44YD49alWLZFuc6IrgcRt3PnTvFBRWrnaZ1kZWWl4IWI7dL5fG388MMPogZwcnJiL730krAJqGkw4vaD0jUhIYE988wzgnRqekNDQyWtBu2q9sV/CR0hn3Du3Dn23HPPiUxA1RA1CbzLIXKhEZ0HldYrV66wZcuWsaFDhzIvLy/28ssvs+joaCnGTdxx8glU1ezYsUMs9KClRdQbeOONN4z2QCdx+PBhtmjRIjZ27FgxHT1z5kyxSJbsLiXohXwCXTgmJoZ99dVXgnwbGxtRNU2fPl1kjJZuyoiboNVStDpn4sSJojaldKTt7du3s6ysrFY50Av5hOzsbPFLcY8cOcLmzJkj7AFLS0vRTv3ud79j69atY/Hx8SL3koVKbZmhLQcjkqhZpOcnsmJjY8UK6ClTpgiHF0ovWphBPhCnT58W8QmU/vK2EtpD/h1x1AwPDxfjzuSHlpKSgszMTOGtS1+1onHofv36icUINCFBbkYk5GVK49Tkv0e/srR07e4CnriNC0doJlTe5m23+AAUCaUTeSZTetCwOfk1khs3LZKh9BgzZgx4RrhlmJbOfbvcte4I+TLopuhh6aFpDJoWHdBMFLlr09g0+e+RXxoJuSnfnIm7KXRtuvnuCkofIpqX6kahDEC/5IdHz0nvKqQwSieaKSVXbfLZJ8dM2vb392/Wzf22kk+GmhQuDqSbF4P+CmhNTyBPXPq0mRK0j6cEopuU/fVpmzJFUlKScPSk0kGJRXr6lYUSjc7RXUEJS5mUyNMVIoRKNXnckhs6pRNleMro9BIHythUwOgczZHbmp7SmPfjhTu7ErSPv6Mlv7Xj6cZJOqonUKZp63f1dNFZPYEyMoFIVUJrJbezekqftpZ85TMYYRAwkm/AMJJvwDCSb8Awkm+wAP4/wqgXgB+lT9oAAAAASUVORK5CYII=;" vertex="1" parent="1">
          <mxGeometry x="90" y="90" width="141.11" height="180" as="geometry" />
        </mxCell>
        <mxCell id="dJfr71_uDZgafGz-rYJZ-4" value="" style="shape=image;verticalLabelPosition=bottom;labelBackgroundColor=default;verticalAlign=top;aspect=fixed;imageAspect=0;image=data:image/png,iVBORw0KGgoAAAANSUhEUgAAAG8AAAElCAYAAADqcbzeAAAAAXNSR0IArs4c6QAAAARnQU1BAACxjwv8YQUAAAAJcEhZcwAADsMAAA7DAcdvqGQAAEAISURBVHhe7Z0HfBRFG8afFAikEQidhE7ovfcqSBcFEaQIqFhRPgsqigUEBRVREenSBWnSIUgH6SX0GpKQhPTey377TPbgkuy1XBAS989vyO3Mlrt5d2bed9prI8lAhfT0dNjY2MDOzk6JyY616SQsLAxlypRRjrKTkZEBfjV7e3slJjt5Sa9SpQr8/PyUIyA8PBylS5dWjrKTmZkpgqH7m5vO3898UCMuLg7FihVDkSJFlJiH8LvzNxi6num2ymeNAogmvAKMJrwCjCa8AowmvAKMTVpa2mPTNiMiIuDu7q4cZedRaJvVq1fHnTt3lCPjzzdXm8xrOomPjxfapto5ZmmbTHhcgajFF6Zg7DfqUEszK8gS1Ow8FawtWbp0QyWHaHbefxhNeAUYTXgFGE14BRhNeAUYTXgFGJvQ0FBVU4FqLlVUQ2puznT+pfqq+0w1V5eun6ZPQkICnJyclKPs8HyhDtuqv18503M+n99Pl85j0qRJE5w7d058Jvn9fMI43Xfhd1D7fjpSUlKEmWDoGfrXq1Ho7bwLFy5AfkHRrl07NGrUCLdu3cLx48dFxtSsWROVKlVSrsgO0xk0O+8xcvfuXbz22muYMGECoqKi8M477+CNN97Avn37RAYUZAq98Nq2bYsaNWpg9erV4k1euHCh+NujRw84ODgoZxVMCr3wypcvj2HDhonqJzExUZS29u3bo02bNgars4JCoRceG/wuXbqgdevWQlhly5bF6NGjVduZgkahFx5htdmnTx84OjriqaeeElVpYcBG1gofm7ZprFef1xNrtU1dekhIiFBWvv32WzG6QP6N8TxD2iKxVts0OhjLKseQnWGp8GJiYtCvXz9cvXpVHGtYBoXFF33evHno2rWryNt/zc775ZdfEBkZiSlTpohjDcsIDg7G3LlzMWTIEDRu3FgI819p8+TSjeXLl2Pw4MFKjIalBAUFCW1ZV+WTf0V47OVg21KnTh0lRsNS2K1HxatEiRJKzL8kPG9vb1HqjPXTaRjn2LFjuWzTR56bVFTOnDmD3r17KzEalsIuvoCAANE3q88jF96lS5fg5eUFNzc3JUbDUpYuXYpBgwblMilsaUs8qkBFhaWuVq1aBb4f8XHBYSMKj2ZWzvy1pcr5qAJ78TnsU7duXYMmhYZxjh49ihYtWqBixYq58teWPQSPKrAHIykpCVWrVlW+ioYlUEDbt2/HqFGjVPP3kbZ5V65cEW0dO4M1LIddelRWunXrpsRk55EKj+otR7A1EyFv0LajhskOdTUeWa5yEQXra9omGpZDheTEiRNCeIb0hUcmPI5c9+3b1+Bbo2EcVpmpqalCU9c3zPV5JMJjp/SyZcvwzDPPKDHWE3ltI7xvJSpHTzbR/uex90oosga18gaNcpY+QxOkiFE7j+NRavGmwsWLF0VRb9CggfIY6wk8NhOLzsQpR082oZf3YOkhX6Qpx5ZCLZOdGxScs7Ozah5TNkbtPJ6gFm8q7Nq1CyNHjhTqrD6RNzZjrKcnPD1fx57geLliT8CxhR+jrYj7Ej48KeomPvt5BY4FxkJKS8SGNV/j++VzMfEXX2yf0Aqzj0WLe+k4veobjP10E0JSlAgSeh7jn38fK6/Iwk6OxOpvXpbvLz/jpaWISI3DhrWLMf/IXWTIp17f+A7Gb+eCywCsebpz1nmdB+HX0/eBiEMYX+UnzJz1nBzfFd9u2YKfq1WFZ+semH4kUP5BxzGhzi+Y++swOb0DPl95BsmZ4hsoxGLPp63FPXuNmICL4Uq0GZw+fRrNmzcXn9XyWAgvp+1gbWCPwKFDh8S4UzYy/PHnjJkYfiwAl/9qiSmbzyHqzg5sXBuKmUdvYvfUnRgwYhVC5So3Oi4ByelZL05iQgwyaw3C7Leqoe9PJ/Fua0dEhl7C8kG9UaN6dXzr8CyWTBuEMlI0/O4exEdyXPXXF2PQjE8xop4L7h5egVM32+HYjStYUu47NP/5Knq3r490vxO4emcrth/pjVl9K+Hi+rk4P3I6Avx9seWVLgjfeBzhSckID/wMmW0X48Santjw+XxUOnQb+z57Dkmr9yEwMQWRgV9gvesU3Dj0JW6e8MalyCTdD8bV1W9ggstnCLh9Fa82csSvS7YjxozieP/+fdy8eRNNmzZVzWNdyPc27/z582jYsGG2oQuB735sO/USqnsCrs3G4vjrHZHoH44kz2dQu3Ix1Bv0Nfp578eN7AUrFxnxIdi99ghSugzF559/jrFNsmzIpLuH8fXXt9BCjvt83GDULV1cxAfcOIqTmX7YvW4jgpyaIe3QLcR5NEdv13hMmjIHNSY8DVc4oOHTE9DBKQjLlq/E3rN3oStANjbD0KmxG1zdasDhxVHoX8kWju5lUU5JB4bgiwF1UbxafQwOicXVAF0VEIGbuyPRLPA6lq1Zj7sxwSiafgfJqabnii5ZsgQDBgxA0aJFlRh18lV4LMos7mzr1NTbXF+bVYDyUc4m+V92JCkDMTG3laMs7Et4YtjbI9G1ppvoO71+YAN+WX0caTX6Y8HCAagox6VF3sKvs37HwXtyKbC3g71rMY4II61iZ8wa1gTFkYwEfyfUrtEMQZFsRxNwec08bDl0R9wzTW5TdN/LBlXg5qIcqKJ865QkhKWmiKr4IfK1TrbyPdNRolpHdOnYGc5FjAuPGubixYuFpm6KfBWefl9mLsO8qhdaJK+A7z0g7twydJy0HsmVy8AxYCtuBCTj6l+fYXv3zqjFAnvlKi7ejUN68gWcl6vV3DihZt9nMO7llzF+8EAM6l4PzqJ5LYN2ctzLL7yId8YPROMyDvCo3gbNUz3Q+8WX0bboKiy4HoyoG9445xKPd197CUV+n4Yz0ckIvHQdVZv0xLiXRqJ2yRjIX9NM1mPvmSgkBcrVaSV31PPQlRZ31HwqFUdL18HLY15Ek2JBuHbiClIzjWc5p+LTPKhWrZoSY5h8FR7nWVATYgOdC/u2ePX3FzCjRXnU6n0Uk999GjVq9MGgIW6Y2LIqun7YA5tWj0S5snXxwVgnrHmrJeo0OQnPd56CUxFbWQj9cPh/LfDd0ez1anG30qhUzhX2+sXWvhgqepaHm4MtqnUciWYef6N5tfLo/mFX/PhBE/x94iZsmz6DyhXq4fnxLbHr/eOoMe4ZeP88FJ416+J0hTZoX+OeXAIdUKKcE1iH2Mj3LOWUNTJiW6QYHF2KwU48cyJS9tRFtXaz0fbpIWhaxhH2Dk4o4VgM9UfMxszwT1G+UjW8us4PbZ8biJJyJWAItvFbt27FuHHjDNp22ZAvUIWzymR7TTnKjVr6unXrpGnTpkmyAJWYQk7YAelF5+nSeeXQWrhiq1evXlJiYqIkN0Eij/lXDcbna8lje8fusP9MX6ZTTYyc2QOGzWjLYP61bNkSxYtnKVumsAkPD1dtQVn9segaEkTOdA79cBr5xo0bc2uaGiZhfn755Zdi1gGnjMiFK8uWk/NXrQpler7N26R6y+GLr776ShxrWEZgYKCY28oCwFl2FAsFyvw1JLx8qd/4EKq3/fv3V2LMJzUuEPfuy8qBbFiFXt+JnTuzwsk7EcoZxojGJeV8XTgakL0LLUK2/8Is7hJNQ8T1IIRFxyHo/C7c9gtD0M1Ig32VGSlxuB94BdGhvvj7tjnfOzfc3IeGd7lyDy1IU+SL8K5fvy5miXHZsEWkJ+HE6T3Yc9UfGZkJOPjTUKz6+7ww9G+HxisnGSMBAfK5PP/8sU345JlJ2Oav6+HIIuTyNuxfe10+0xLicWHpPpy54osD30zCvvPncGDXXwhPVpJzkBJ9B4e9f8PV4xvwpbevEms+rB65DIB9mZZM1MoX4W3btg0vy/aVpcumkmLuwf9SEpo0bIli9n4I2PcUxn3wMT7++GMMa/NwZrBhKqG3fC7PH94OqPPJj/iwVfZR++qtX5Zzdz+u3tfv/ASCjs3E4Kl/IEo51nFmaXdMXHkVRVpWQIVypVFBNlEaNi2N1NJJiIxLA8L2Ytpzs/De/zqiY8eOWHQmAfZF3FGhQjuUKV8RvepUR2zAP1j/5SYEGxB2TtgxwI7oZs2aqVaRBmGbp4a5pkJycrLUvn17KTY2Vkkxn/vnV0kz5/4jJfIgeIvUR26C5S8v2TQbLf19N0qcYxaxl6Rp3X6QDsalKBF6pMVIe9atkv465Culy+q176b3xTMGfbxQCk/KOiUz/Io04fm2In7Wyay4bCTfl9YuXiUd8AmWpHtrpGdrtZCWn4uVrq7pJzkNXSSFKaflFdk+lnr06CGlpDz8/v+KqUD1lrObXFyM9iGpEh18G1c8SkMoxvGZsHt2Hfwyk3F1cnm88vV6mDcAlIHbh7cj5cWqaF1cpeTbF0HpKAdk+N3HgR+H4J2Q7ti/fz+mvtIXrkXlNjfBF7/M/xGVhk4V8UPVZuQ7lEJD9xj4hQYiU1bvSpcYgKa1XFCn6UjY2Vs/pXHVqlViap+pvsyc2LK+zWugxsmhet3QhaWkJuu1azUHYsuGwfBEUdRu1hXOfokIVpKMkhqJU1eLoUbF+rC3NVblOKPDxPVY1gnYu3cvDuxcgB82HUeaUzW8PXEa6qfdzorf9i1WHfPLMRZXBBWrO+J0SIQsPAlFi3jCRX0HEIthlbly5Ur07NlTNY+NBauEx6l9HK6vX7++8lUsw92jDiqHx4CtUcyJuRi+8ab8KRU3zh9EradqwpwJg+nx0bhSLA0lq7or3VU5yEhHrEsa7MoWE91cbnWfxtSpUzFmyGC09Sovi0WmeBn0HfqqiO/TqjlqV3DJpQyUqNUOHtsCcS3DeMeypbDmKlWqlNjIVS2PjQWrxvM47kQlxdhQvTFcPVvAK/IEAmVV3rXFqxh8oiEcHd3QaGkKPnmxE4qkJWL175Px4wm5DMqKwgi373BNuVZHUkIYSkr+qOTqrMQk4Mzc37B0yUmkyOZHekIswuUyXKJWJegPDTuWqY9ODavK5Tw77jV6oEW1UkLQ2ShWAc29buFiaLbRVlUib+7Cry8twF0zTJTNmzfjpZdeEjPK1fLYWMizwpKamirJdbU0ffp0o+cZJSVW2rhtsbT4+HUpzWR3aKK0++tfpDvKkbn4/7NEWjHliGSB+mM1KTGh0sm9u6QARSEyRFRUlNSuXTspISFBiXmIXLIencJCw/zy5cto1aqVwV4YkxR1wVNNG6JB8SikZh8IUyEadq36wfRASXaSkkPQfEJ7/JvLXCR7W5QsXwfljIwgkH/++QcdOnTI+ww7RZC5MFXy2AM+YMAAiX2jGpbDvJ08ebK0ZcsWJSY7j7TkcZIRJ4Qa2k1Bwzgc++TGdbVr11ZiLCdPwpOlLmwTbcFk3vH19RV2nTUvv1FTQS6dqvG3b98WHak0zjUsh/Yx+zK54yG3jFTLY1OBsjEqPColavFUb8eMGWNxj4BGFpweyal93JKDqOWxqUDZWGzn8SKdbaKRN9i5wdqLUySpqavlsy4YS7e4zTt79qx4qLbmLu/IGiY6depkcJddfYyNMlgkPNaztE245aFG3mB7t379erHfp7VYJDxuP8Xh+pxbSmiYDzcUYmnKjw2FLBIe56iwN6BChQpKjIalsNSpLcLJC2YLj1XmtWvXxLidoW0WNYxDo5yzDoYOHarEWIfZW3lwat+NGzfE2N1/Zl5mPnPkyBF0795d1F5qeWxpMNv5IdVbTkvj7CatSyxvsEuM23Jwt11irfNDG9ngMyg8ljBdKZOFLAxLlkDCG/OmhkqhqXQSHR1tcLYUDVF+QUMjFpakc2MDf39/PPfcc9k6Fqx5PtN4jiXpFBR37uNfYvVOt/J/+TLpNiem0sm/5fyQnQrUkjnDTX8bLc35YQGA3VHMZGMvUkHkPyM8vt2FTdH6TwiPq03Z1mnCK2Cw3aGyVRhHQAq98NjoMxRG4dnItoaqtskfTC3HmClADCkBptKJMVXd2vuzxFEjY6njCia6W+vVq5eSmgUXxxhaS6i73tT9mT+GtEGeYyidcLd2vlRqGqup65luw7UGynE2zBGeNcIl3ICgZMmSylF2zBWOqXQqKwsWLBADn3QmoY+x55u6vy5z85pO2F2mm6+ZE931xoRf6O08vt30AsKtI7mqRx/NznvCYQYyEzSFpQBCwbEWKIwblP9nhKeVvAIIhVdoq002fIYCUYs3J5hzralzTKUbC7pr9UteznOsCbr7Gwq6dN1fQ8FUuqFAjG6Wyh+tFm9OMOdanTJhKOTH89k1RluPWlvOc0w931gw9d106cbOs/b5tvxRjyrQRlGL1wWdKaEWTF1rKtAMIHxL+WOpkuc8x9gzzH2+Nd+T15q63uh3ZAY+qsAHq8WbE6y5lo7sX331VUyePFn04lB4nDxFT2KHDx9WvSZnMPf51nxPc4Kx+xdKhYVbHnLEev78+WKOKXeaf/rpp/H3338XqikchVbbHDFihJiRzDaPc0XYj/nee+/lef38k0ihFR73Z9Y55GC1yQ1quDimMFFohce2YtKkSaLvkcrKa6+9JjxhFSaeWOHpbBlr4Hp5dkhzriQDBfokYe1vNHveZk5MpXMohotS2HNuiNjYWLi6uipH2WFVRwzd31Q6bShmDt0EcLpinz59lJSH8LsZ2rlJd72p++u0wZyYSif8Xuw8UHsGr2V/LBewqilZTLeRM8Gg8PhgQ2+rKeFRcD/99JPYuVXDcqhk+fj4iKpfLQ8pPP6nCkukLCDlKDem0sePHy/JKrpypGEp165dkz766CPJz89PicmOXLLzd49pHRwh5n5aAwcOVGI0LIUrZ1n1GlOyHonwuM0H7SzN/VrekAuWWIFMU8dQs0TyXXhUJHbs2CHWoGnkDSp73FCOtqkx8l147EOkMkMjWSNv7Nu3Dx4eHiYXsea78LjfM30JFcZpB/8W3CmfvoRM2aW2LCX5Faio0EmtIUdQGqbhNpgHDx4UG8qp5bF+kIWbZcvlRwgNDRVtHnv0NfIGlz3TlxCVPbU8zhFUI/MUdH5OWV9rWA5H/P/66y8hPLX8zRWU6/IFneNDzUTIG7r9yDg13xzyTXg0KE+dOqVtJpdHaNudPHlSdIUZ6gvNSb4Jjx6aaZ9wFFvDctiXyd02dJvJmUO+CY8rcejn1NDcfQ3j3Lt3T6xZqFy5shJjmnwRHoc2Fi5cKBw75BdXVnTHhO0W+KZ+jFzx/hXv/XFBuBjIC6wyudMGX3yLHEFRO7Q2sC+TM7NyrrVLT4lF0K1buHUrBIkceZIykRgVirsiLiLrx2akIjQyFskZmSI9NjYCUTFRuBcYjAA/X0QlZd8KPzEmAvfD45FtICs9GcH3QhHLocnMDESHB4sZZLeCY+TzMuR7xiAmKcvNRUpcKEIS+DkNMf53s87zD0RMcob8XRJx/3YkIiLuyfH+iEyIRyTT/QIQmZQupyfJ6VGIjAyU0/0QHpciHAOnJScgOjFN/pyJhFBfcc+A4FAzNj3PgnlIX0LslaIWmTN/DQWb6Oho/Wx4gEiUG07eTA1dOpkwYYLYJqNz587iOIsknP7jC6zdGIageCdU/vR9fF47Dqu//B777ssZ6peETnO+x4Qa0Xhj3j8Y98pwtHZLx6KVsxDr1gR3lv8Pf6f1xA9zfkHf2pm4uc0bR8KjEZ2aDocSTTDiuZZwtQ/DsaXbcN0BuOSTjGfefRlNEs/ilx+W43xsNMJSnPDSp5+ikt8BXLRviPE9PLF/zs/w7TYezzsew7xPtuCuqw1C4yV0GT4Jb7fxx8jqS+E1sy5ubD8Jp6bt0eTObRyQEtGw/4f4uGcMRnvMg9s3NZB0NABF2w/Hd+/0hv/O7/FTWFfM6BaKmXMWITKiOFJtXDHwjc8xqFX57P5sVeCgNKcqTpky5YGPCpZGKoHMf0MKjC1XhqoFjnAzqKUx6NI5L5KKCqcbZCPqJLYulzBqyRIsXfoqGjoXReSNs7gT2RJfLlmKpbNrYM/7K3BbxTdasaqdML6fO1q/MgO9yoZixZzVOHwnGrCxRb3uQ/DG0Jawu7lJtoe2IpAXlKyJiZ+MQ8fyRXD56AYEej6D+UvlZwxIxdcbbqNV506oEnACi34dj9se4/BKU1ZNZdF1xndYsmQhvn6mPewv+sm1gxxtex+Nek/Gr1/2gU8I0F/+/jNf6g3Xc7cUB/V+qNF1EpYu+RDVTp/EyeBURsrE4My8XxDUdCqWLF2E156qiKvnj0EukCahSx+OlnMnwJx5rH+sH5hmdZt35swZsR9ZrgWCvmewNawOXJyBouUaYnijCogJCMZt12oo4WwH91aD0DFArq5MNBR2LhXw9POtYbNnDaZP/warL2W1g8WqdsYnH1fFqenTMX3FFtyOyvJ3FhfkgxU/jEOLOvXR4+PtSN12BxEuVdC7tTvmnmuHfs9URlHYoYxjJqa+0g+1vOphwPu/4qq4mtMqeqFetaJwcHCDbd26qO4EFClWPMtZlaA3ejUuCXu3MvCKT0RYgq7iSkKUbwqOfCTfs05DjPjoJxy4FoyUNNN1p26zdUO1nCGsEh7nRNI2UR26qFgZ7eXqRq5dkZkaj5DoJDiVLY86cvuULjdYaQHXcLmYA+z5DdLS5PZBQnp6HILunsy6XsHG3gFlKjTGmG17cPPaJbwcsRavfrUVUXalUKNmN8yUG/qbPwzFwrc/xx+3U2BXwQtjFnjj+o2buHL1Ek7uGwGPtADs/DkWX3W4gdl/3UFqZhh2TJ2Nzm+uwM0bV7D1+zfwcDZnUfrFN8JZ3AvJhBQdgStpqbKwlWg5K+2LNcekDSeE8nH9+i1s/mos3B2N9/FyaTXda+dl81SrhEf1lhoSnRjlonwTtKq1F5t+W4vfZ0zH2MXHYFe9MoolbMGK31bh+y8XwO6jF1GvnBvqxl3AmpVrsOHPA7h7tZS4vLhjOfif2IGrYbpqScbGDh3HTsaCKf1RWn/FVvkWWLllNl6o4YAG9XvAbedazF+5Ft+9PhDv/3kaRw5uRvTzVdFv9CwMvLME2/ZHwLl6Bfie88a6dX/C+9Ip+DrEy22Mcj+jBGD/rqVYsWQH7nRqiy5VdF+kLFq+WRpbt8zF2jXLMfuziVi44TiSDfkqVdDt183piZZi94WM8jkbbCyNKSxM5wgC+zM5lTz3+rdSqNqyJkKv30CMYwu891oXeJb0ROVqbggLuCeXzNF4f3xruDmUQP06zoi/H4LkzMboObo16lSsguqVvJAWGYqyNRujoov5tqNTGU+UdE+Gn18QHCqNxcSxjZCaUgzVvZqjgrMzKtSqiKQQB9Tv1RQpkUGIkRu6Jk/1R9s65WQ13ROlKlZA7eYV4Ein9qUron6FUrAr4oASFSqgQulYbJ5dAt0m2CE6siqef64naroXh72DI8qV90TjJp3Rwc4fF/wSULphZwzo00UueYbLB0cG6KGZM7nVTAQqLcYUFp6giqkJRtxF4scff5SWL19u0GVKoSP0b2mI/dfSReXQWi5evCi98MILkqy5KzEPYZ5SBobylvF5Hs+ThSe6xCz2c1qQKdMN69I+QQPl0Fo4PZJaOmsxtTw2FYwu8dIVWbVw584dYZ9Y4wvnvwz7Mvny6zqi8xKMLq6k8NTiGdasWSOG6rW+zLzBuT7UEzj2qZa/5oQ8aZusMjkv0xxHUOGX/8DmI4eQopg7kdc2Yf5fGxGTLKt2qXHYseATUXUwrLuedY65RO6djPHb7yhHWf2hunu9MmcrElIzcWrNcBwLUk4wmzic+XUXjl+8hT2fdcDvG45hz6LzMOS5PTnyFvbt+AGXDq9G32WnlFjDyE2W8C1P4dHlaF7Jk/DoGJddYSa9msQHY8WlVNiUaQAH2dxJCPHBjEmDsWRvCNIzJUQHnkbIiXbYfOwYjs0bhbe6zsZ11c66HEiZCNs7BRV6f4PLYTrfnlG4tOckxs2X7yXfb+E7/eFU1BbVm47Dja+2IyzHfeUmX7Y3c9sGUmY6MjLTEBMQjhjZCI+4VRElKqcgvPhmhMeIM5CRzrXkWe0ON3nOTJPPC/NDfFQwysnas3xzZMr3NvRTaB+z/5NzfdR2PzIXi4XHxpVD9easdQu5dwPuUY5oU5Vvl2yMLvkWdr0m46mGWelu1bpizOJ+soUkU7cJXk5bgpt+IskooT7L8OnZqvhn+SAlRkY2xC9vbo3wm/ux/8QFBMdmdRq7edSHWxdfXLwRI46Tw28Ll9reqz/A0BnrES2uTcTNy2dF/F+/9sOkP26j7JAmqFezChr1fQYNq1dEGqogMjYBCFyLUTVHYuzb3dChcXmMW3ULtk6eaNRkBKrXb4W+jTwRG3gSm2dsxX0DTu45UYuGPIVnDRYLj3s1BwUFoUuXLkqMYcJDbsK/bH24i1mAJfHCx6swsbXaXMQU3NiyAoEDPkEjM0ZEyjYeg/kfjkVFudF+QLA/tmfa4q7PPmxYNRdTN+xFYlom7BydUSatDOLkt+Lyjtn4dvsRMTsrstxwrPzoeTinhGLXpnlY5X1IxJcZtAvfDW+JBs0awLOMbIOOGI6aJcqjMuzk3x3CQgUbl3QM/9Ab2+aOx/odRxHvXBK1G7dE2Rod8Vy94nD1aI1nPx2ICgbsbno1oVFuydidGhYLj52oXOed2yjPTUjQdUS5yEascqxOCq5u/RavnamEj755DpUfdiJahntLzNo2H7O++Aoz334W/pvP43xcivwL7eCYZI/M6Ey4VW+Bhg7hYrf3q34hkGUrJzuiepUaSA68JuID1Ro2exdULReMoKhAUXpLOHVGTQ8HlK7QWFbqLJ/i+Oeffwq/6FQ6rMEiO4+KCt9OKgTm4FrK1CyyFFxcMQM/bXfC0knvo24ZK3YpciqHrl2rwRk2cHRxR7F6ZVFCdJzqsEeZOh0x6Pl3xPS6F8v+hebjf0SEvTO8Wg3EtOk/i/hS69zQZ9YhZB/ssEXV2m2w/k6c3B6y18NR1rKVJAthlfmnLDzWXLpxObW8NidYtJUHu8I4M6xqVXPczwOl3T3hde8e4g30Gcb6H8Hy3UfRoGdL3L9+DqfPnENkcjpi7gYijMMNslIRHuaP4Hi9/k0DxJ1dipbTF8o1wzH8uXUT6tR0R7ViRSClJCPELR4OtUoKh/Y2tvZiNrdX//m4ufRdiA0j5d9mLysOjO/xWTR2fNAJOZ2j2Xh64WXvGzhC5+smSE+Oxv1bIcJPe042btyIYcOGZXO/ppbX5gSLNtGhn1M+1FxfQmU96sJWuo3r4Q9bbsdyTdChUWMUL2ILm0zZzqnQBHf/2SocJG3eslWutlJx/9xV+IUkyrJLxfkzu3Hgovp0CKc6/TGsftZ3cWk2Bhva3pXvswknk+tiaP+nhbaZGBGAqLsSqniVzZtq/YBSaPZGbbg51EX34Q0g1vOWrI23+9TTGy7KIjnCF0fXeyMoh8LC0qJzBKWWv5YGs/s2ZfVWmjNnjrRixQrz+zLTkqST+36Rfv/7kJRiuJvUMBkp0o0zW6R/bpnwFm+Ekyuflzbuui+lKMf/BgmR/tLhHYekqBy/+cqVK1L//v1F3pLY2FiRr2owj031bZotvLi4OOmtt94SnamWkCELMFn+gnnrus6Ur0+R0nL325pNWlKMlGrF9XkhMzNDSkuVM1451rFw4UJRAHRYKzyzaxL64uFaBEv7Mm3ti8FBbk/y1nUt1+v2RbMGbPOIfTFXyDX0v4qNja3chtpn+83cLpkD1zm3SrYGs3/WunXrxLidNT0C/2W4TJnzVPJzLxizhMcJRhSeznWYhmXItZxYh0DhGXJFkBeM2nk6G4QrNdmVo5uWpmEZnJTMITQvLy+hJernb17tPF5n1M7TsWnTJqHe6sdpmA/H7qgz1K1bVzV/9eNyBkPpxKSdR98H9BWrVZl5RzYRxNgoJ2qp5bGxwPFStXgGk20e+/u6deuWp9lNGlnopvYxw/MTo8JjvXrgwIFcblw0zIcmAoVnziiMpRgVHofqWeJU52VqmMWWLVvECEJ+apk6jAqPA4YcprdmqP6/DGuutWvXio7oR4FB4XGonis1q1Wrpq0xzyM0D7g9Mvf9fBQYFB7rag4B0b7TqaYalkF9gTPsHlWvlM39+/dV58lQcOPHjxel71HBnodH+WJw4FN/3Cwnj/r5XJ/PHeY53YHP4fP0Ye1GU8DYkgJDaaRQ+8/j3l3sTDeE5j9P47GhCa8AowmvAKMJrwCjCa8AYyNrhY9N24yIiDDomCk/tE2OP3L/SkMYe7652qShdJ22aCidcKiI2qbaOWZpm/yvsAbdj3wcgYLV//sogmbnaXaexuNAE14BRhNeAUYTXgFGE14Bxqidx+EIQ0MSptKpKRFj2qYpO48Yut6UtklNj7OTH5Wdp9MG85pOrLHziFE7j19eLV4XjKWbutacYM09eC1RS8uPYG7e5Ec+qAXeV7PzNDtP43GgCa8AowmvAKMJrwCjCa8AY6vTih5HoMakFs9ATUst3pJg7P6FITyxwsuPjCdq8brwuIXL51vzHQqdnZeWliZ+GJ/LHpaQkBARR3JuuaXZeU8Ys2fPFi47uZkrZyRzSyr6OPrwww/FFP7CRKETHgXFae6vv/662CuNK3S42qlXr14oXjyvu9I9mRQ64XEt4bPPPisW8bPqZmmjs3hudmeo+iqoFDrhsQ3h9sn0y8M2g7vxDhkyRPjfKWwUSjuvdevWot2jMsElavnp1+9JolAKj0Kjx2O68Jw8ebJZG7sWRGwiIyNVTQVWOWwjjA226qfzs77VwbZmxowZYnWoIagNGspY3b0MtVOm0tnecQuN+vXrGzRXHuXzTaUTfkdDA9q8nmYUFS82ATlhuo1si2Q9JQfW2nFU1em9eerUqUqMhiVwHJILM1944QU0adJEiX2IeDnk/1TJuWVjToyly6VSklVz6cCBA0qMhqWcPXtWmjRpkhQSEqLEZIeF7pG0edwChNs1tW3bVonRsBRuNMddOAzNsSGPRHg7d+7EiBEjCq2i8KiRC5bwCMpdJAzpHCTfhUclYPv27Rg1apQSo2Ep7PM8ffq0ukdQPfJdePRMVbNmTdOuajQMQj9N3DXJ1P43RoeEWHzV4nUhZzrNBxZ3GsaGets1jEMtfvHixaKXSD9vcwbmvVHhURhq8bqQM51ut/38/FCvXj2jdbWGYejsnnnHvTn18zZnYN4b3W+TpUctXhdypnN8jDeuUqWK8lU0LIU7BLJ3iA469PM2Z2Dem9zpVi1eF3Km060Y35r83AT7vwSHsry9vR/sKmwskHyt26gh0bbjm6FhOcw/mgfGttzSJ9+Ex4FPdoe1aNFCidGwBDY3dABMH7Lmkm/C2717tzAR1Px9a5iG+gIVPioq5pIvwqPaumjRIjFupquPrSUjJRYJqap95k8cGWnJSEzNMOhm1By4yyKVEC6OMZd82cqDD6Z9l5+uVi793hGvbzW8wudJ4tKun/H2ynNIUY4thVUm+zJLliwp+jPV8lgt2H366adfqCXQjuBfkjONQT+dwz/cWzLn9v2x905h5dQfscY7HFU61EFp2zRcP7ARv/36O7Z6p6F+Ty+4JgRj3cHLcC5bBiXk9BOn9+JGgB82rV6LIxejULtFJ1QrqUyNkzJx8+gObPdJQo3q5VFUV2/E3sXihbuRUa0OKhVJwJHtK/HzojXwDnRB+walcPb0SfilOcOjZHEEnlmL7ZHl0bBsEv6ZORs/bd4Kb587cPSsjcp2vlj5+Tn4p+zEwoWHgUrO8J31HeaduSJ/roMaRe9hxWfnEIrd+O23fUgtVRU1Krgi9MYxnEishr5NS+Lq+q/x3dLtuBoYgype9eFiRvcupyZyO2O+/Nybk/mqs+WIfr7rAtOtsvMYeBPaJq+88op40EMi8feSL1G0w2D0qnkdI1efR/TdfVgzdwc8OgxAg4zJeOm7w4hPDMOefy4gKD4VUnoyfHwO42JKWbSu6wjPVr1RpwwFdx/bxg1Dm/YdMfW2C9o28oSDENwlfNOmDdq8Oxe2teqgqostAk9tw+5tUejYvxfcD7yO0X/5yQKNxLGzZxGTfAV71iWhXqUiuLxpFlYle2DwswNQJzEAhzadQWyMLzb/+CbOprdAh6o3MP316bjX6Tk0LRKBw6uOIjLGH1t/GIcf7niiXwtHLNqwE4Ep6fwiAv99X2DsBXcMHtATCT5HMH/TWSQpLsaNERsbi8uXL4u+TLU8NhSssvMY2CPAtyWX89p7e7Bn67PoOLA1eoz/Eidfbom4u6GwKTcU/QZ2xOgPv0TFn9fgUqRyvh52TmVRs6ID3Gs0gnvcBbzz7LcIGTsDB/fvw+IRHVGrcinEHfwKTo5b0PvgQRycPwOjezZGmWK2uOLjjcCW7dG5dUdMfO1F+By+A9dmT6Hj/bN4a1RbJA97CY1LlkD9Z6bjh4+GoUmzpmjpVR1u0YnIkCsSO/vW6NyhDbq174CE/kPwUv/WaNesAcpHxSNVTMJuhf892w+dhz6H4Zdu4NDdrAm9fMFO/3Ya/ZsPRJNW7TGoVyWUSLkEPdkahN6vOcONk6TU8thQsEphYfGlbdK8eXMlRo+IUPgoH3UkRofjwaSIkqWRsx9GkqvFtNRY5SgLh4rNMWfjR/D4Yxr6DRiA11fsw8WbIXDuPAUJiYOwT1aS+r07BYu2nERQopy7ckneO+8DDGb8lD1oFS9HwQ41alVHcMUv0KwSXZimInz/IvTqM1BWsgbitRnLcS3rcfLb3AjlDA+hydRAKU5Ey0hHYi5f6K7Y+s0occ8J33vjVoKrqOqNwapx1apVYl6ppVglPBZ3uhZr2FBxfK5P9dromHoKkdGyDeh3BN9sOA97z3KoGHEJYdHpCDq8DAdr10QZzoMNCkZAZCpSk+7i+iFdNupTDr1+XgTvXbvwST0J1+5GIE3kWl1M9PaG9zevwzkiGKFJmShVpTmGjJiK9Tu8sezLp9BqiBeKBh/H3tMJ+GaoO/Yv24SApBic/GM7erz6I/bs3IovRreHi3iOOWzFmWtJSL3vh2MlHOFRQpeFzihbvyy8Jv4E793bMP+LtzGgYTUUM+H8j65+uAM8J0tZilXCu3fvnmgXPT09lRg9XNpi4DgHTOvTDT0HrUDRSiVRoU57NKpyFRP79MDA11Mxbu4oVKlQHcOb3cOPbw7A4BcPIE2ZbFO6bDPsmzEKq33ixLFAriqqt+qBIU/Vg5N+J46LJ4aPlasrd3vUa/scyt9djt49umHA6KtwqyC3yfuPIa1HGzRrPQzP1QzFhlmXUalvK+ya+xp6DRiCA0kSnNwCkWZGFQe0hc+6nnjq2d9QundftCyn00ic0eyNsWhw5G106/4U3vhxPeKLlTTpuHHz5s146aWX8rYDvFz1qWLOHJb169dLn332mcHz6H4zXT4vLS39gQvOzIwMcW1aWsbDOLrpVOLkakTKYIISJz5bSEZGerZn8J4PvHfKHzLSM/W+m/wMPlMOTEvXfS9+1j2c1/Bz6N/SEPuvpQsZWb8pQ7kp7yXS+VmkZeWdkmyQ5ORkqWnTppJc8pSYh8iKoLgP/6rB+DzbefKNhYbEvjhqPmrQ/aadXDLt7e0euOC0sbUVpdVefiUfxNFNpxLHjm1bJihx4rOF0PG8/jN4T7nQZsGG3o4Nvu67ZW2Nz8A0O9334mfdw3kNPxdxhVebSnC2zfpNsranJPN65bNIy9LSlWSDnDhxQkzDd3FxUc1jU8GWDWZeAjeAoaYpvznKV/kP4NYC0w6PRn54VqKJdeTIESE8tfw1J1jkJ10/sBOVXTmWdOdoPIR9mZyb2ahRI9X8NScYtfOMhdWrV6NPnz5Z1Y2GxXB6JGfXcVa0Wv6aE/KU83xj6Cenc+fOSowKadHYvWQKNl0Mw4E149CmVWM0atAOwyasgm9yOtJjfPDtqAZo0qQRvHq9jG3Xw5QLjSDbTNe2T8Pw+k3QpM4gzNh9H8mZabi0/3sMerqhmFncqdsMnIqjLaeQHo9j29bhz31XZSM7u1VmigjvT/D8H0HYt2E23v5mBj5culd+noF7xN/Ad1+vxo3oI5hV432cyW6uZoNVJqfis62zxjVbnoTHHoExY8aI5VSGCDn0IU7ZDEPvKgm46fku/j56DqePrEJ9t8PYdSIICX6XUfWD4zh//gy2vVoCc9adQJJyrSHYSGe4uGHq0fM4f+A1bOv7DS7EJCDItROmrTgh3+s8PhxwHAvWXEGycg3sndGidS1EnfSBb1SOruPEu9i9aAluy7boA+QXJOzaMRw6eBYZRUuitIsTSpQtg8ZtO6Hi0QDcpfDS4nHW5zT27lqFeb/+gmWrjyA0syhKlHSFk60rSjVvjDJSAHZduILYlNz9Yxz7pH3M7jBrai6Lr6SWSQfAtE0ME4gdHyWh47N1Ucy1Kl7p0BBORWTtzs4BjnalkJKSCqdGwzC0obN8bhE4utriRkKMyS9jI2uR9Tu9hRp8WdPTkQBZq3N0Q8/mLVG/TNY0ORenqkhLSIJ+lhUtUxfNnU/gqG+UfJSJ0Ku7MXXCC3jh2z2Q3N3hIJTlJJxf9QFeeHEUvtnthyIujnBpMARvtymBOo26Y2CThmhZ5SCO3MoEUmKw9485WH7oLtzci+Lwmk+x8roteg9oi3KOtfD09O4oa1cUrsWLPdRY9eC4HVfrcpadVchvsyo6WyUn8tstjRw50qD9IYg4II18drmUc5b9vUNLpA/HzJWuRevdN/yyNGHol9Iin2AlwhQp0pW/Ppc61XGTev9yU0pTYgXBW6Q3W/9POhSc+sCG1BF5ZJY0/o+rUsDOmVK/kXOk075BUlBEvCRbd3LiTenTVz+QZv51RgoKDpYi4lJyXU/SLiyUSs08KUlx96Rv35wizdh0VZKtPWnn/DHS2zvvKGeZZvny5dLUqVOFfZeamqrEZof5a9LOU2RoFvI1OH78ONq3by8aTIOEh2Cng1zSlENWM77Hl2Hq5D/R96s3ULtEVkpy6E388t0qOPbogRfqlRdxpimKugO+wMGrdzH2RB18uCtULoXJCL64Fa90nYTOy75Hx/JFHtiQOmxti0C2zeHx9HuY93ZJ/Di2EzpNXIyrvr6Id66JqfOnoNW1z9CpS3e8MW8vAsKi5POVixXsPepg4NnzCGJPTO0yqFTZRa4tbC2a1s/2bv369cIBsNE8NANbrt1WC6yXGfTjuPWGbujCKBUq43n/BIi9F9JicHHN73jjpxi8vm0HOnmIM2Rt4ApmfzYXkTWH4OOX22Xv7jKAlCm3n6d2I0TcWIKd/Dc6JQ5+B7bis9nXMHL/BQypLU7NRXJSONyKcyKwLTxajsSKfTdx86fOOPT9j7guRjac0fnD7bh5VVak2sXj8O5/oK/3CEo1xajK3th7K6/DrhBtHdcscrpDSkpKrjzWD8bSGCwqeZxQy5lN9BRiFJc66OmxFOfuyc3D/fP4YcFqxCedwpx3x2Ls2Kn463ggbnu/h2lrTsDn6E94d6wcP3s3YtIScfDgBvztGwPE+mD+W7sQrNwyCwlhV/Zi5hjeZwx2lv4OkxrbYsPaZfC5dQRLPh4vx/8P81ZfRoKs/S1+ezv8xXWxuLbPAW1qlRRHDyjRGK//MgfN9afd2NihSvvn8eKIPiiZSx9zQuueVbD5gvzDTJAaegW/eh9CeKJuyCiLDRs2iKl9+bEIx+xNdHgaH3z9+nWxp4mpjtTkaz/jiw2NMfmD5ogLCUPig4GtYihVriwcM4JwL1yvJ9ixNKpVcEVCXBQkBzeUsE/Brs/moer096C/LjQtMQahQWFCM3UuV1VWEDIRGXYfUfG6YmIPZ7eyKFPSBhH+yShRrSQk/0NyRkZg6PP9UcnFymn4yVG4l+IgizEN9sWc4OJgj6S4MMTbuaGM48M8kdICsPqvO+jdow1KuTmIOJY09qhwFRXXcli7iY7ZCotchKWvv/5a2rZtmxJjmrObpkh/+MQpR5ZyWZo395zy2QrSYqWDWzdKu4/7y8rFv0jYJWn36StSTLJyLHP48GFp3LhxypEkxcbGWqWwmC28iIgISTYPJLnqVGI0LEEuRdL06dOlNWvWKDHWC8/sNo8j5q6urvDw0GkcGpbAneQDAwPztSPfbOGtW7dODNVrfZl5g+s4uETZ0EZ5ecEsSXCYfsuWLejWrZsSo2EJchUnTCzuMKjflynXfsqnvGFLrdJU+PPPPzF69GijfZkahuHqH26wwLk+FKQuX/mZGqV+XlsS5FpQGb1WCVRT+YCNGzeKDQI08kZkZKSYVa5bdKoLYlhH7zgPQTVSBN6cdh3XRlvdifof5tixY2I3QrZ3anmcM87soNzfIHww2zqdsa5hOZxRzjxUM7atwajwWFefO3dO9Apo5A1Wl1RWLFl3Zy5GhcdOVK5a0eap5B0uIBk+fPgj2VDIoPCoxuq2UOLSIw3L4YZCXEHFrZIfBQaFx+EITpKhoqJtQ5U32CvF7RZzLcLJJ2zYf6Z8zkZwcLDYaLR///6P7OGFHXZscNyO2y6qYa2Text2mCrH2eDA67Jly8RfNWj/EaqsaphKJ9xQ1dAWTdben+nz5s3Dm2++qcTkxtjzmTkMhu6vS2fGGspcmgZjx441uHOftUNCmvNDzSmGxuNAE14BRhNeAUYTXgFGE14BxqCd929om6ac3FurbXLKBu1VQ1jj5N7cdGPaprV2ntElXrRx1OJ1wVi6qWvNCdbcQ2efqaXlRzA3b/IjH9SCuK8sQc3OU8HckmVNydPsvP8wmvAKMJrwCjCa8AowmvAKMPmyWWpeA1GLz6/wqO//uIPNo3J+aOp6QlWZOyKoQTWb9zNkapiTXrt2bbH22xDWPJ9pOlNADVPphLMVaCaonaO7Xmcn5oTpmp2n2XkajwNNeAUYTXgFGE14BRhNeAUYo+N5VFMNqfr5oW0W5vE8nbZoKJ080vE8ohafX6Gg399Y0D1b91ct6FBLMyvIEixUdt6hQ4fEfbt06SJmK3NF6v79+8V34TIr/an7mp33hBESEoKJEydi/PjxInPoBfKdd96Bj4+PwUwsqBQ64dEzCF3Bcct7vrV//PGHmNLOUqf2hhdkCp3wuC/a4MGDRfXIxaEUYNeuXcUuuIWNQic8asf0JqbbmZDCfPHFFw22TQWZQic8UqNGDfTt2xfFixcXfwur+wCr7Dxj6dSUCKst+hy6ceOGWJvNpdLclIdx1Aq5Ex6PqVzI30VcQ3RKsDElg+cYSmeVyS006BmL226podPmDJHz/vytzs7O4n4cSmLg/RloU3KrDmq4HM3QaYvGSrw1dh7JN+Ex47nejeHixYs4ePCgEBaXRnPPLcJ2SDd+xS+ku14XjAnqSUFnAuQMzA8uY2bgMnCdIKlA0Wyh0sRAYemwWnjySXm28ygwbqDKnVspMHprZuAG2PSVzvXsDLTl6PiegW0Q31zdj+Hmq7rPT3q7RCFxh1ndS8rSzWMKgSYK84JLwdmrExUVJUp+UFCQqF24GwQD2+Jq1aoJT5/MW2vsvDwJj2n0q0APzdynhVUiBckvxvaF7sSortMAZmC1YuglKIxQmOx6YycAOwlYA509e1YECpVez+iSnG5GBw4cqNpRkO/CY7vEXVoXLFgg/AjxzeOXoDZHBxlsA1iqqCioPfC/CqtS5h0D842uDWiHsiSzreTWYNzuQ9+VnTnC43+qsC2UBSg+c5dbHx8fSTZ0JbmIS7KAJNmWkg4dOiTSNSzn3r170scffyzJApPkqlOSmxPp999/l+QmR6TLgrVup1u5XpfkN0WaNGmSEJhcT0v/+9//JLn4K2dpWEtAQIA0d+5cqVWrVpKsH0jPPvusdOTIEeFzIc/Ck6tEaenSpZLcyIqbjhkzRuyRTIFq5C8UhKw3CEcZ1atXlypXriy99957kq+vr3HhsWpUCz///LMkN6TijZDbObHHtMajhQVG1toluf0TVeno0aNFyVSTD0sltUTxQRfYvs2aNUuSG0lJVkaE+xmNfxeWqjfffFOSlRUhSG4knlNO3Fg8W7VJyc+cOVOSbS+pQ4cO0pkzZ5QUjX8b2cwQ+oWzs7M0aNAgKSwsTEnJIlubJ6ulonqUDUipS5cu0rVr15QUjceFbPhLEyZMkGxtbaWPPvpI1Io6sglPNh6lYcOGSfXq1dNK3BMES1zPnj1FoTp48KASm0N41CRp+02ZMiWbhJ9k/plmL9pm/fD+rnAl1QhhPtIrA6dJf1wz49wngFOnTgnZjB8//oG2T+E96HWmN0ovLy/IUoaDQ5bvmyceSUK7JT4POocZZvUqhaSoAAT5XhdOiY+cOI1bkYofy9QIXD5yBOcu3UB83h1x/euwF2vAgAHCVals3CuxeuN5nKRTtWpVEQo26fD/Zxm+mPEdVm7ZjuU/fYFPFh9FTFoUzsz+FFPnrMeev/cgOMzwlMAnke7du4sBAHaA63ggPCZwDqOheYxPKld+eF14jc4KX+G04v81uVx9fD7lC3zxzjB4nb+JqMjbWPMLMGzuTEx8Zzy6ebijeNapBQIuV+MoBftHddhSkgxcK8ZOUI6rFSRqv/G9cJWTFT5E0xJZ8U1qecLZ3h5FXUqgLCNCg7AxzQOeZYuiqGNJlHZyf+hZswDAYSPZOBcCpLy4dM22XLlyYOButhzd1pdsQcCumKMY3c4KxWCndMDn8rNb2gPPuUchPCYd6SkJiE2ORw6vok80bOvoyobjpJQX/e89KGYc8eVgIkNBIsh7FebMmfMgrLkUrqTkoERdjPrgPpa9/y3mrViBy8HBUB0Le0Lh+CmHjPTH/uy+kOEHWfvEokWLxIbWHFDVH8d7UnEsUx813SuIMURdKF3FC3XkWqSiRw2UcXNF0eIuKFujCsp5loVHvTYol5kEp2qN0eupnqjrVRZOWX62n2ioj9BbaNu2bcV+1Q+mUgijQSY4OFjq3Lmz6BajZa/x5PDKK69IcjUp/fnnn8K+I/z7QHjsqV6yZIkYt3vttdckue1TUjQeF+wsWbBggWRvby8NHDgwm0yyCY/IGoyw4osWLSq9++67YrRX4/HAQQIWJo6wN2jQQAyK6yOEpz9GxHDr1i3hG5YCpHPau3fvKqdr/FtQML/++qvk4eEhtWvXTjp69Gg2GelCrvE8Bg68vvXWW0KAQ4YM0UrgvwjH6Tii7uLiIrVv3146ffq0iMspo1zjefpwAJBD8byJbFdI8+bNE5NjOHSkkf+ww3nv3r1i5oKDg4Mka5bSuXPnHigoOcnV5ulD6VJYdA3NWWOOjo5S//79pQ0bNkhBQUHKWRrWwolGx48fFzoG2zcOyU2bNk3y9/cXMjAmPLPmbXJ9AUcdFi9eLLpnmjdvLjw3cwSCfW4alsPJt97e3mIe7MmTJ8Usa3r74hxY+iukWPJl3iZhHcvJMZ9//rl4Qzg87+XlJeZasEHVMA8qhN99952Ylefu7i5qtFGjRokqk6VQV9L411TJM1t4+qSkpIg2sFmzZuLhnCjDdpHG5JYtW4SRT1WX5xm6R2GGegFf9qSkJKE7UOngIHfTpk2FEsg2jdP7qBRydpga5gjPqoUmsoDEAn6OBV64cEEsqmDgohEuqqCTWwZ2enOoiWsWOCWeg71cVMKecv3wpI9oMKv4u+VMzRWYF1yqxkU2XBXl6+srurXOnDkjFp+wQ5lLv9jMsJuLzQ4X4Vi10IRviXKcDXOEp5/OhRVccMLA+fhc2qUTJhdesEecPeHsWKVwKUBd4A/gX0PPelKQ33ax7oCrfjiExr+6zxQah2k4XMPfoRMWF3py4Q1nKXBlEDuXdb+TIzhWCU9+a/JFePpw+RMVG/7lD+NqGSo9FCxHLfiGUqD8wbolUgx8g59kWDPwxWPtwSEo/tV9Ll++vBAQA5excbENBcO1eqxx1OBv5jl5WZ8nhCf/l+/CI6bSyaPYh0WHqXSi7cOi8djQhFdgAf4PKlKBbgsz3FYAAAAASUVORK5CYII=;" vertex="1" parent="1">
          <mxGeometry x="358" y="110" width="111" height="293" as="geometry" />
        </mxCell>
        <mxCell id="dJfr71_uDZgafGz-rYJZ-5" value="Start" style="strokeWidth=2;html=1;shape=mxgraph.flowchart.terminator;whiteSpace=wrap;" vertex="1" parent="1">
          <mxGeometry x="369" y="80" width="100" height="30" as="geometry" />
        </mxCell>
        <mxCell id="dJfr71_uDZgafGz-rYJZ-7" value="" style="endArrow=classic;startArrow=classic;html=1;rounded=0;exitX=0.991;exitY=0.41;exitDx=0;exitDy=0;exitPerimeter=0;" edge="1" parent="1" source="dJfr71_uDZgafGz-rYJZ-4">
          <mxGeometry width="50" height="50" relative="1" as="geometry">
            <mxPoint x="520" y="370" as="sourcePoint" />
            <mxPoint x="520" y="230" as="targetPoint" />
          </mxGeometry>
        </mxCell>
        <mxCell id="dJfr71_uDZgafGz-rYJZ-8" value="" style="endArrow=classic;startArrow=classic;html=1;rounded=0;entryX=1;entryY=0.174;entryDx=0;entryDy=0;entryPerimeter=0;exitX=0;exitY=0;exitDx=0;exitDy=0;" edge="1" parent="1" target="dJfr71_uDZgafGz-rYJZ-4">
          <mxGeometry width="50" height="50" relative="1" as="geometry">
            <mxPoint x="520" y="200" as="sourcePoint" />
            <mxPoint x="550" y="160" as="targetPoint" />
          </mxGeometry>
        </mxCell>
        <mxCell id="dJfr71_uDZgafGz-rYJZ-9" value="" style="endArrow=classic;startArrow=classic;html=1;rounded=0;entryX=0;entryY=1;entryDx=0;entryDy=0;exitX=0.991;exitY=0.72;exitDx=0;exitDy=0;exitPerimeter=0;" edge="1" parent="1" source="dJfr71_uDZgafGz-rYJZ-4">
          <mxGeometry width="50" height="50" relative="1" as="geometry">
            <mxPoint x="520" y="480" as="sourcePoint" />
            <mxPoint x="520" y="260" as="targetPoint" />
          </mxGeometry>
        </mxCell>
        <mxCell id="dJfr71_uDZgafGz-rYJZ-10" value="&lt;font style=&quot;font-size: 9px;&quot;&gt;(&lt;/font&gt;" style="text;html=1;strokeColor=none;fillColor=none;align=center;verticalAlign=middle;whiteSpace=wrap;rounded=0;" vertex="1" parent="1">
          <mxGeometry x="90" y="150" width="60" height="40" as="geometry" />
        </mxCell>
        <mxCell id="dJfr71_uDZgafGz-rYJZ-11" value="&lt;font style=&quot;font-size: 10px;&quot;&gt;)&lt;/font&gt;" style="text;html=1;strokeColor=none;fillColor=none;align=center;verticalAlign=middle;whiteSpace=wrap;rounded=0;" vertex="1" parent="1">
          <mxGeometry x="140" y="155" width="60" height="30" as="geometry" />
        </mxCell>
        <mxCell id="dJfr71_uDZgafGz-rYJZ-12" value="example" style="shape=process;whiteSpace=wrap;html=1;backgroundOutline=1;" vertex="1" parent="1">
          <mxGeometry x="520" y="200" width="120" height="60" as="geometry" />
        </mxCell>
      </root>
    </mxGraphModel>
  </diagram>
</mxfile>
